<svg width="1080" height="1080" viewBox="0 0 1080 1080" fill="none" xmlns="http://www.w3.org/2000/svg">
<rect width="1080" height="1080" rx="108" fill="url(#paint0_linear_0_1)"/>
<path d="M122.582 334.82C117.292 320.855 122.265 313.873 137.499 313.873H187.963C202.139 313.873 211.872 321.173 217.162 335.772L314.281 600.787C319.148 614.329 322.004 623.427 322.851 628.082C323.697 632.525 324.649 640.037 325.707 650.616H326.977C328.035 640.037 328.987 632.525 329.833 628.082C330.679 623.427 333.536 614.329 338.402 600.787L435.521 335.772C440.811 321.173 450.544 313.873 464.721 313.873H515.185C530.419 313.873 535.391 320.855 530.102 334.82L378.393 743.292C372.045 760.431 362.1 769 348.559 769H304.125C290.583 769 280.639 760.431 274.291 743.292L122.582 334.82ZM608.812 769C594.001 769 586.596 761.065 586.596 745.196V337.677C586.596 321.808 594.001 313.873 608.812 313.873H719.579C816.91 313.873 882.714 333.551 916.991 372.906C951.48 412.262 968.725 468.227 968.725 540.802C968.725 613.377 951.48 669.553 916.991 709.332C882.714 749.111 816.91 769 719.579 769H608.812ZM679.271 690.289H713.549C779.141 690.289 821.565 678.123 840.819 653.79C860.074 629.246 869.701 591.583 869.701 540.802C869.701 490.021 860.074 452.569 840.819 428.448C821.565 404.116 779.141 391.949 713.549 391.949H679.271V690.289Z" fill="white"/>
<defs>
<linearGradient id="paint0_linear_0_1" x1="0" y1="0" x2="1080" y2="1080" gradientUnits="userSpaceOnUse">
<stop stop-color="#22C55E"/>
<stop offset="0.505" stop-color="#06B6D4"/>
<stop offset="1" stop-color="#3B82F6"/>
</linearGradient>
</defs>
</svg>
